<svg xmlns="http://www.w3.org/2000/svg" height="48" viewBox="0 96 960 960" width="48"><path d="M225 974.999q-43.211 0-72.72-30.218t-29.509-72.012v-120.46h126.077V188.694l58.261 50.692 59.03-50.692 59.031 50.692 59.03-50.692 59.031 50.692 59.153-50.692 59.154 50.692 59.153-50.692 59.154 50.692 58.384-50.692v684.075q0 41.794-30.217 72.012-30.218 30.218-72.012 30.218H225Zm511.192-58.384q18.038 0 30.846-12.193 12.808-12.192 12.808-31.253V281.385H307.231v470.924h385.307v120.46q0 19.231 12.308 31.538 12.308 12.308 31.346 12.308Zm-375.73-478.846v-58.384h232.922v58.384H360.462Zm0 139.538v-58.383h232.922v58.383H360.462ZM684 443.154q-14.231 0-24.154-10.607-9.923-10.608-9.923-24.154 0-13.547 9.923-23.97Q669.769 374 684 374q14.23 0 24.653 10.423 10.423 10.423 10.423 23.97 0 13.546-10.423 24.154Q698.23 443.154 684 443.154Zm0 135.692q-14.231 0-24.154-10.607t-9.923-24.154q0-13.546 9.923-23.969 9.923-10.423 24.154-10.423 14.23 0 24.653 10.423 10.423 10.423 10.423 23.969 0 13.547-10.423 24.154T684 578.846ZM224.111 916.615h410.044V810.693H181.154v62.076q0 19.231 12.458 31.538 12.458 12.308 30.499 12.308Zm-42.957 0V810.693v105.922Z"/></svg>